<svg width="32" height="32" viewBox="0 0 32 32" fill="none" xmlns="http://www.w3.org/2000/svg">
<g clip-path="url(#clip0_90_86)">
<path d="M15.9331 4.47559H25.0856L27.6366 11.5693" stroke="#B34215" stroke-miterlimit="10" stroke-linecap="round" stroke-linejoin="round"/>
<path d="M15.9329 5.99707L21.5273 11.5691H28.9343V13.2698H20.7665L15.8882 8.41385" stroke="#B34215" stroke-miterlimit="10" stroke-linecap="round" stroke-linejoin="round"/>
<path d="M15.8882 14.6797H18.8868V25.4657" stroke="#B34215" stroke-miterlimit="10" stroke-linecap="round" stroke-linejoin="round"/>
<path d="M27.9497 25.4658V13.27" stroke="#B34215" stroke-miterlimit="10" stroke-linecap="round" stroke-linejoin="round"/>
<path d="M15.8882 25.4658H28.9343V27.6588H15.8882" stroke="#B34215" stroke-miterlimit="10" stroke-linecap="round" stroke-linejoin="round"/>
<path d="M26.2042 15.8882H20.7217V22.87H26.2042V15.8882Z" stroke="#B34215" stroke-miterlimit="10" stroke-linecap="round" stroke-linejoin="round"/>
<path d="M23.4741 15.8882V22.87" stroke="#B34215" stroke-miterlimit="10" stroke-linecap="round" stroke-linejoin="round"/>
<path d="M15.9105 4.47559H6.75808L4.20703 11.5693" stroke="#B34215" stroke-miterlimit="10" stroke-linecap="round" stroke-linejoin="round"/>
<path d="M15.9106 5.99707L10.3162 11.5691H2.90918V13.2698H11.0546L15.933 8.41385" stroke="#B34215" stroke-miterlimit="10" stroke-linecap="round" stroke-linejoin="round"/>
<path d="M15.9332 14.6797H12.9346V25.4657" stroke="#B34215" stroke-miterlimit="10" stroke-linecap="round" stroke-linejoin="round"/>
<path d="M3.89355 25.4658V13.27" stroke="#B34215" stroke-miterlimit="10" stroke-linecap="round" stroke-linejoin="round"/>
<path d="M15.933 25.4658H2.90918V27.6588H15.933" stroke="#B34215" stroke-miterlimit="10" stroke-linecap="round" stroke-linejoin="round"/>
<path d="M11.0992 15.8882H5.6167V22.87H11.0992V15.8882Z" stroke="#B34215" stroke-miterlimit="10" stroke-linecap="round" stroke-linejoin="round"/>
<path d="M8.36914 15.8882V22.87" stroke="#B34215" stroke-miterlimit="10" stroke-linecap="round" stroke-linejoin="round"/>
<path d="M12.9346 19.8936H14.2772" stroke="#B34215" stroke-miterlimit="10" stroke-linecap="round" stroke-linejoin="round"/>
</g>
<defs>
<clipPath id="clip0_90_86">
<rect width="26.4727" height="23.6308" fill="white" transform="translate(2.68555 4.25195)"/>
</clipPath>
</defs>
</svg>
