<svg width="32" height="32" viewBox="0 0 32 32" fill="none" xmlns="http://www.w3.org/2000/svg">
<path d="M24.687 15.0312H28.3287C29.5183 15.0312 30.4732 15.9881 30.4732 17.1621C30.4732 17.7491 30.2304 18.2878 29.842 18.6738C29.4535 19.0597 28.9194 19.301 28.3206 19.301H24.7518" stroke="#B34215" stroke-width="1.3" stroke-miterlimit="10"/>
<path d="M17.3147 19.301H3.14454C1.95493 19.301 1 18.3441 1 17.1701C1 16.5831 1.24278 16.0444 1.63122 15.6584C2.01967 15.2725 2.55378 15.0312 3.15263 15.0312H17.3875" stroke="#B34215" stroke-width="1.3" stroke-miterlimit="10"/>
<path d="M28.4095 19.293V23.2973C28.4095 26.0553 26.1597 28.2988 23.3759 28.2988H8.09707C5.31322 28.2988 3.06348 26.0634 3.06348 23.2973V19.293" stroke="#B34215" stroke-width="1.3" stroke-miterlimit="10"/>
<path d="M3.06348 15.0313V4.46562C3.06348 2.55189 4.62535 1 6.55138 1H8.89014C10.8162 1 12.378 2.55189 12.378 4.46562" stroke="#B34215" stroke-width="1.3" stroke-miterlimit="10"/>
<path d="M16.1009 8.5185H8.65576V7.95564C8.65576 5.91326 10.3228 4.25684 12.3784 4.25684C14.4339 4.25684 16.1009 5.91326 16.1009 7.95564V8.5185Z" stroke="#B34215" stroke-width="1.3" stroke-miterlimit="10"/>
<path d="M24.7596 21.3917H17.3145V15.5942C17.3145 14.3479 18.326 13.3428 19.5804 13.3428H22.4937C23.7481 13.3428 24.7596 14.3479 24.7596 15.5942V21.3917Z" stroke="#B34215" stroke-width="1.3" stroke-miterlimit="10"/>
<path d="M6.9561 28.1699L4.52832 30.5822" stroke="#B34215" stroke-width="1.3" stroke-miterlimit="10"/>
<path d="M26.9449 30.5822L24.5171 28.1699" stroke="#B34215" stroke-width="1.3" stroke-miterlimit="10"/>
</svg>
