<svg width="32" height="32" viewBox="0 0 32 32" fill="none" xmlns="http://www.w3.org/2000/svg">
<path d="M18.7014 4.307H23.9906V3H18.7014C18.0168 3 17.3697 3.2614 16.882 3.74686L6.33169 14.1842C5.48766 15.0244 5 16.182 5 17.3677V21.6061V22.2596V29H23.9906V27.693H6.31293V22.9131H12.4274V16.8262H18.542V10.7487H24V9.44165H18.542V4.31634C18.5888 4.31634 18.6451 4.307 18.7014 4.307ZM11.1145 21.6061H6.31293V17.3677C6.31293 16.5275 6.65992 15.6966 7.26012 15.1084L11.1145 11.2995V15.5285V16.182V21.6061ZM17.2196 10.0952V15.5285H12.4274V10.0018L17.229 5.25925V9.44165V10.0952H17.2196Z" fill="#B34215"/>
</svg>
