<svg width="32" height="32" viewBox="0 0 32 32" fill="none" xmlns="http://www.w3.org/2000/svg">
<path d="M16.0005 22.0819L17.0866 21.0127H20.155L21.0782 20.0772L23.4678 19.1416" stroke="#B34215" stroke-miterlimit="10" stroke-linecap="round" stroke-linejoin="round"/>
<path d="M16.0005 14.9448H19.0689C19.9106 14.9448 20.6981 15.3992 21.1054 16.1209C21.6213 17.0832 22.3001 17.9386 23.0876 18.7138L23.7393 19.3553C24.4724 20.077 24.8797 21.0393 24.8797 22.055V23.6588C24.8797 24.5142 24.1738 25.2092 23.3048 25.2092H16.0005" stroke="#B34215" stroke-miterlimit="10" stroke-linecap="round" stroke-linejoin="round"/>
<path d="M16.0005 24.0064H19.9649C20.7252 24.0064 21.3226 24.6212 21.3226 25.3429V25.8507C21.3226 26.3052 21.6756 26.6526 22.1372 26.6526H24.038C24.4996 26.6526 24.8526 26.3052 24.8526 25.8507V23.1777" stroke="#B34215" stroke-miterlimit="10" stroke-linecap="round" stroke-linejoin="round"/>
<path d="M22.7889 18.4199H16.0005" stroke="#B34215" stroke-miterlimit="10" stroke-linecap="round" stroke-linejoin="round"/>
<path d="M20.8066 20.3711L21.5941 21.0928H23.2233C23.6578 21.0928 24.0922 20.9324 24.3909 20.6117L24.5267 20.478" stroke="#B34215" stroke-miterlimit="10" stroke-linecap="round" stroke-linejoin="round"/>
<path d="M22.0283 22.9105L22.3813 22.6699C22.7072 22.456 23.0873 22.3491 23.4675 22.3491H23.9562H24.8523" stroke="#B34215" stroke-miterlimit="10" stroke-linecap="round" stroke-linejoin="round"/>
<path d="M23.9565 22.3491V22.8837C23.9565 23.4451 23.4949 23.8995 22.9247 23.8995H22.1372" stroke="#B34215" stroke-miterlimit="10" stroke-linecap="round" stroke-linejoin="round"/>
<path d="M22.2998 17.8586V16.9765C22.2998 16.9231 22.3541 16.8696 22.4084 16.8696H23.9833C24.0376 16.8696 24.0919 16.9231 24.0919 16.9765V17.7785C24.0919 17.8319 24.0648 17.8586 24.0105 17.8854L22.7614 18.3932" stroke="#B34215" stroke-miterlimit="10" stroke-linecap="round" stroke-linejoin="round"/>
<path d="M16 22.0819L14.9138 21.0127H11.8726L10.9222 20.0772L8.53271 19.1416" stroke="#B34215" stroke-miterlimit="10" stroke-linecap="round" stroke-linejoin="round"/>
<path d="M16.0004 14.9448H12.932C12.0902 14.9448 11.3028 15.3992 10.8955 16.1209C10.3795 17.0832 9.7007 17.9386 8.91324 18.7138L8.26155 19.3553C7.5284 20.077 7.12109 21.0393 7.12109 22.055V23.6588C7.12109 24.5142 7.82709 25.2092 8.69601 25.2092H15.9732" stroke="#B34215" stroke-miterlimit="10" stroke-linecap="round" stroke-linejoin="round"/>
<path d="M16.0005 24.0064H12.0361C11.2758 24.0064 10.6784 24.6212 10.6784 25.3429V25.8507C10.6784 26.3052 10.3254 26.6526 9.86381 26.6526H7.96305C7.50144 26.6526 7.14844 26.3052 7.14844 25.8507V23.1777" stroke="#B34215" stroke-miterlimit="10" stroke-linecap="round" stroke-linejoin="round"/>
<path d="M16.0003 18.4199H9.21191" stroke="#B34215" stroke-miterlimit="10" stroke-linecap="round" stroke-linejoin="round"/>
<path d="M7.50146 20.478L7.63723 20.6117C7.93592 20.9324 8.37038 21.0928 8.80484 21.0928H10.4341L11.2215 20.3711" stroke="#B34215" stroke-miterlimit="10" stroke-linecap="round" stroke-linejoin="round"/>
<path d="M7.14844 22.3491H8.04451H8.53328C8.91343 22.3491 9.29358 22.456 9.61942 22.6699L9.97242 22.9105" stroke="#B34215" stroke-miterlimit="10" stroke-linecap="round" stroke-linejoin="round"/>
<path d="M9.86373 23.8995H9.07627C8.50605 23.8995 8.04443 23.4451 8.04443 22.8837V22.3491" stroke="#B34215" stroke-miterlimit="10" stroke-linecap="round" stroke-linejoin="round"/>
<path d="M9.70035 17.8586V16.9765C9.70035 16.9231 9.64604 16.8696 9.59173 16.8696H8.01682C7.96251 16.8696 7.9082 16.9231 7.9082 16.9765V17.7785C7.9082 17.8319 7.93536 17.8586 7.98966 17.8854L9.23873 18.3932" stroke="#B34215" stroke-miterlimit="10" stroke-linecap="round" stroke-linejoin="round"/>
<path d="M29.6958 10.5652V6L2.30451 6V10.5652L29.6958 10.5652Z" stroke="#B34215" stroke-miterlimit="10" stroke-linecap="round" stroke-linejoin="round"/>
<path d="M4.13029 10.5654V27.0002H2.3042V10.5654" stroke="#B34215" stroke-miterlimit="10" stroke-linecap="round" stroke-linejoin="round"/>
<path d="M29.6957 10.5654V27.0002H27.8696V10.5654" stroke="#B34215" stroke-miterlimit="10" stroke-linecap="round" stroke-linejoin="round"/>
</svg>
