<svg width="32" height="32" viewBox="0 0 32 32" fill="none" xmlns="http://www.w3.org/2000/svg">
<path d="M23.6011 16.0273H26.7875C27.8284 16.0273 28.664 16.8646 28.664 17.8918C28.664 18.4054 28.4516 18.8768 28.1117 19.2145C27.7718 19.5523 27.3044 19.7633 26.7804 19.7633H23.6577" stroke="#E3E3E3" stroke-width="1.3" stroke-miterlimit="10"/>
<path d="M17.1503 19.7633H4.75147C3.71056 19.7633 2.875 18.9261 2.875 17.8989C2.875 17.3852 3.08743 16.9139 3.42732 16.5761C3.76721 16.2384 4.23455 16.0273 4.75855 16.0273H17.2141" stroke="#E3E3E3" stroke-width="1.3" stroke-miterlimit="10"/>
<path d="M26.8584 19.7563V23.2602C26.8584 25.6734 24.8899 27.6364 22.454 27.6364H9.08505C6.64919 27.6364 4.68066 25.6805 4.68066 23.2602V19.7563" stroke="#E3E3E3" stroke-width="1.3" stroke-miterlimit="10"/>
<path d="M4.68066 16.0274V6.78242C4.68066 5.1079 6.0473 3.75 7.73258 3.75H9.77899C11.4643 3.75 12.8309 5.1079 12.8309 6.78242" stroke="#E3E3E3" stroke-width="1.3" stroke-miterlimit="10"/>
<path d="M16.0883 10.3286H9.57373V9.83606C9.57373 8.04898 11.0324 6.59961 12.831 6.59961C14.6296 6.59961 16.0883 8.04898 16.0883 9.83606V10.3286Z" stroke="#E3E3E3" stroke-width="1.3" stroke-miterlimit="10"/>
<path d="M23.6649 21.5926H17.1504V16.5198C17.1504 15.4293 18.0355 14.5498 19.1331 14.5498H21.6822C22.7798 14.5498 23.6649 15.4293 23.6649 16.5198V21.5926Z" stroke="#E3E3E3" stroke-width="1.3" stroke-miterlimit="10"/>
<path d="M8.08671 27.5239L5.9624 29.6347" stroke="#E3E3E3" stroke-width="1.3" stroke-miterlimit="10"/>
<path d="M25.5769 29.6347L23.4526 27.5239" stroke="#E3E3E3" stroke-width="1.3" stroke-miterlimit="10"/>
</svg>
