<svg width="32" height="32" viewBox="0 0 32 32" fill="none" xmlns="http://www.w3.org/2000/svg">
<path d="M28.7244 25.2295H25.5448C24.2199 25.2295 23.1411 24.1507 23.1411 22.8258C23.1411 22.2296 22.6584 21.747 22.0623 21.747H10.8671C10.2709 21.747 9.78832 22.2296 9.78832 22.8258C9.78832 24.1507 8.7095 25.2295 7.38463 25.2295H3.85481C2.83277 25.2295 2 24.3967 2 23.3747V16.6084C2 15.5864 2.83277 14.7536 3.85481 14.7536H4.38476V7.83589C4.38476 6.82331 5.20807 6 6.22064 6H26.7088C27.7213 6 28.5446 6.82331 28.5446 7.83589V14.7536H28.7244C29.7465 14.7536 30.5793 15.5864 30.5793 16.6084V23.3747C30.5793 24.3967 29.7465 25.2295 28.7244 25.2295ZM10.8671 20.4221H22.0623C23.3871 20.4221 24.4659 21.5009 24.4659 22.8258C24.4659 23.422 24.9486 23.9046 25.5448 23.9046H28.7244C29.0178 23.9046 29.2544 23.668 29.2544 23.3747V16.6084C29.2544 16.315 29.0178 16.0784 28.7244 16.0784H3.85481C3.56145 16.0784 3.32487 16.315 3.32487 16.6084V23.3747C3.32487 23.668 3.56145 23.9046 3.85481 23.9046H7.38463C7.98082 23.9046 8.46345 23.422 8.46345 22.8258C8.46345 21.5009 9.54227 20.4221 10.8671 20.4221ZM25.9044 14.7536H27.2198V7.83589C27.2198 7.55199 26.9927 7.32487 26.7088 7.32487H6.22064C5.93674 7.32487 5.70963 7.55199 5.70963 7.83589V14.7536H7.02503V13.7505C7.02503 12.4635 8.06599 11.4225 9.35301 11.4225H13.5831C14.8701 11.4225 15.9111 12.4635 15.9111 13.7505V14.7536H17.0278V13.7505C17.0278 12.4635 18.0687 11.4225 19.3557 11.4225H23.5764C24.8634 11.4225 25.9044 12.4635 25.9044 13.7505V14.7536ZM18.3432 14.7536H24.5795V13.7505C24.5795 13.2016 24.1253 12.7474 23.5764 12.7474H19.3463C18.7974 12.7474 18.3432 13.2016 18.3432 13.7505V14.7536ZM8.34989 14.7536H14.5862V13.7505C14.5862 13.2016 14.132 12.7474 13.5831 12.7474H9.35301C8.80413 12.7474 8.34989 13.2016 8.34989 13.7505V14.7536Z" fill="#E3E3E3"/>
</svg>
